<?xml version="1.0" standalone="no"?>
<!DOCTYPE svg PUBLIC "-//W3C//DTD SVG 20010904//EN"
 "http://www.w3.org/TR/2001/REC-SVG-20010904/DTD/svg10.dtd">
<svg version="1.0" xmlns="http://www.w3.org/2000/svg"
 width="240.000000pt" height="240.000000pt" viewBox="0 0 240.000000 240.000000"
 preserveAspectRatio="xMidYMid meet">
<metadata>
Created by potrace 1.11, written by Peter Selinger 2001-2013
</metadata>
<g transform="translate(0.000000,240.000000) scale(0.100000,-0.100000)"
fill="#000000" stroke="none">
<path d="M1213 1553 c4 -3 -1 -15 -10 -26 -10 -11 -13 -17 -7 -14 7 4 17 0 24
-9 12 -13 9 -14 -21 -9 -23 4 -29 2 -19 -4 8 -5 17 -8 21 -5 4 2 10 0 14 -6 3
-5 2 -10 -4 -10 -5 0 -17 -3 -27 -7 -13 -5 -15 -3 -9 7 5 8 4 11 -3 7 -5 -4
-8 -16 -5 -26 3 -10 -1 -22 -8 -27 -9 -5 -11 -2 -6 9 3 9 1 19 -6 23 -7 4 -9
3 -4 -1 4 -5 -1 -17 -10 -27 -15 -16 -15 -18 -1 -13 11 5 16 1 15 -12 -1 -11
4 -18 15 -17 11 1 16 -5 15 -18 -2 -21 -41 -22 -43 0 -1 6 -2 17 -3 22 0 6 -6
10 -12 10 -8 0 -7 -6 2 -16 12 -15 11 -16 -11 -10 -24 6 -24 6 3 -9 15 -9 27
-20 27 -25 0 -5 6 -7 13 -4 8 3 20 -2 27 -11 15 -18 0 -21 -18 -3 -9 9 -12 9
-12 -2 0 -9 -6 -6 -16 8 -13 19 -18 21 -32 10 -14 -11 -15 -10 -9 6 6 16 5 17
-8 6 -8 -7 -15 -21 -15 -32 0 -12 -4 -17 -12 -12 -10 6 -10 4 0 -7 17 -19 15
-34 -3 -19 -13 10 -12 6 2 -18 10 -18 26 -35 36 -38 13 -4 15 -9 8 -18 -8 -10
-5 -16 14 -24 20 -10 25 -8 30 9 4 10 11 16 17 13 7 -4 8 -2 4 4 -4 6 -13 9
-21 6 -12 -5 -12 -1 -2 20 12 27 29 35 26 14 -3 -27 2 -39 14 -33 6 4 3 -2 -9
-12 -11 -10 -18 -25 -16 -32 3 -8 0 -11 -7 -7 -10 7 -15 -5 -12 -29 1 -5 -12
6 -28 25 -16 19 -28 37 -26 41 2 3 -5 11 -15 19 -10 8 -17 17 -14 21 2 4 -10
19 -26 33 -17 14 -30 29 -30 33 0 4 -7 16 -15 26 -15 17 -35 15 -35 -4 0 -5
-13 -22 -30 -37 -30 -29 -41 -50 -18 -36 7 4 8 3 4 -5 -4 -6 -12 -9 -17 -5 -6
3 -13 -3 -16 -15 -3 -11 -10 -18 -16 -14 -6 4 -8 0 -4 -10 4 -11 2 -14 -9 -10
-8 3 -14 -1 -14 -8 0 -8 -12 -22 -26 -32 -25 -19 -25 -19 -31 2 -3 12 -9 21
-14 21 -5 0 -9 7 -9 16 0 26 -20 11 -43 -31 -12 -22 -25 -44 -30 -50 -24 -32
-57 -87 -57 -95 0 -21 -20 -9 -46 28 -16 20 -31 41 -36 46 -4 6 -17 -1 -30
-15 -80 -87 -180 -198 -198 -219 l-22 -25 447 -3 c246 -1 644 -1 885 0 l439 3
-85 115 c-47 63 -92 124 -100 135 -14 19 -16 18 -58 -29 -24 -27 -48 -46 -53
-43 -5 4 -31 49 -58 102 -26 52 -50 95 -54 95 -3 0 -17 -18 -31 -40 -14 -22
-29 -40 -34 -40 -5 0 -6 3 -3 6 4 4 -1 14 -11 23 -9 9 -24 29 -32 44 -10 20
-20 27 -33 23 -14 -3 -16 -2 -7 9 9 11 7 21 -10 45 -20 28 -39 43 -24 18 4 -7
3 -8 -5 -4 -6 4 -9 12 -5 17 3 5 0 17 -7 25 -11 14 -16 12 -40 -16 -17 -19
-26 -38 -22 -48 4 -13 2 -12 -11 3 -17 20 -17 20 -13 -2 4 -16 1 -20 -11 -16
-11 5 -14 2 -9 -11 4 -9 3 -15 -2 -12 -4 3 -19 -6 -31 -19 -21 -23 -20 -30 3
-26 5 1 5 -3 2 -9 -5 -8 -13 -6 -26 6 -19 17 -19 18 -1 28 11 6 17 17 15 24
-3 8 2 10 14 6 10 -3 6 2 -9 10 -29 17 -60 12 -52 -8 3 -7 -2 -19 -11 -26 -18
-15 -21 0 -3 18 7 7 8 12 2 12 -6 0 -16 -12 -22 -26 -9 -19 -9 -24 -1 -18 8 5
9 3 4 -7 -5 -8 4 -3 18 10 15 14 27 19 27 13 0 -6 -9 -17 -20 -25 -17 -12 -18
-16 -6 -26 11 -9 16 -9 22 0 4 8 3 9 -4 5 -7 -4 -12 -3 -12 3 0 15 18 23 25
11 4 -6 2 -17 -4 -24 -6 -7 -8 -16 -4 -20 4 -4 -1 -4 -11 0 -14 5 -17 4 -12
-4 4 -7 5 -12 2 -12 -7 0 -40 72 -38 82 1 4 -7 10 -18 13 -11 4 -18 11 -14 16
4 6 11 6 20 -2 14 -12 19 -3 15 28 -1 6 3 14 9 18 5 3 10 -1 10 -9 0 -20 14
-20 30 -1 14 17 30 16 48 -5 10 -11 14 -12 18 -2 3 6 11 9 17 5 7 -3 9 -3 5 2
-4 4 -3 14 2 20 8 9 6 14 -4 18 -9 4 -13 1 -10 -7 3 -8 -5 -12 -25 -12 -25 0
-30 3 -27 20 1 11 8 22 14 24 7 2 10 -3 6 -12 -3 -9 -1 -16 6 -16 6 0 8 5 5
10 -3 6 1 10 9 10 9 0 16 4 16 10 0 5 -7 7 -16 3 -14 -5 -15 -3 -5 14 8 16 7
24 -5 34 -20 16 -49 71 -46 86 1 6 -2 14 -8 18 -6 4 -7 -1 -3 -11 5 -13 3 -15
-8 -9 -12 7 -12 6 -1 -8 12 -14 11 -16 -7 -14 -23 1 -25 5 -11 27 6 10 4 20
-7 32 -18 20 -4 25 16 6 8 -7 6 -1 -4 15 -9 15 -20 27 -23 27 -3 0 -2 -3 1 -7z
m5 -114 c3 -11 1 -11 -8 1 -9 12 -10 11 -5 -7 3 -12 1 -24 -5 -28 -6 -3 -8
-11 -4 -16 3 -5 10 -6 16 -3 6 4 8 1 6 -7 -3 -8 -10 -13 -15 -12 -5 1 -10 -5
-10 -13 0 -7 4 -14 9 -14 5 0 6 -5 3 -10 -14 -22 -23 2 -20 52 2 43 1 49 -8
31 -10 -23 -27 -31 -27 -13 0 6 4 10 8 10 5 0 14 12 21 26 12 27 32 28 39 3z
m21 -10 c-10 -6 -10 -9 -2 -9 7 0 17 8 22 18 6 9 11 12 11 5 0 -6 11 -24 24
-40 15 -18 22 -34 17 -42 -6 -9 -11 -10 -15 -2 -4 6 -1 11 6 11 7 1 2 7 -12
15 -14 7 -24 16 -22 19 1 3 0 6 -3 6 -3 0 -10 0 -17 0 -6 0 -3 -7 8 -16 18
-14 18 -15 -6 -8 -14 4 -30 7 -36 7 -7 0 -5 11 5 28 8 15 19 25 24 22 5 -3 3
-9 -4 -14z m16 -58 c3 -5 1 -12 -4 -15 -5 -4 -12 0 -14 6 -3 8 -6 6 -6 -4 -1
-10 4 -18 9 -18 6 0 5 -6 -2 -14 -7 -8 -16 -12 -20 -9 -4 2 -5 -2 -2 -10 3 -8
-2 -20 -11 -27 -9 -7 -15 -8 -15 -2 0 6 6 13 13 15 9 4 9 6 0 6 -22 2 -26 -22
-7 -37 18 -14 18 -14 -1 -7 -11 5 -30 8 -42 8 -13 -1 -20 3 -17 9 3 5 -2 16
-12 24 -17 13 -15 14 23 10 31 -4 45 0 57 13 9 10 13 21 10 24 -8 7 14 37 27
37 4 0 10 -4 14 -9z m30 -13 c-1 -13 -3 -23 -4 -23 -2 0 -4 -8 -6 -18 -2 -10
-9 -25 -16 -33 -11 -14 -14 -13 -22 2 -8 14 -4 23 19 41 17 14 21 21 11 17
-17 -6 -18 -5 -6 15 18 27 27 27 24 -1z m-172 -43 c-17 -13 -17 -14 2 -29 11
-8 15 -16 10 -16 -6 0 -16 5 -22 11 -7 7 -12 6 -16 -4 -8 -20 28 -53 39 -36 4
7 3 10 -3 6 -6 -4 -16 0 -23 8 -16 19 0 19 26 1 15 -11 16 -17 7 -27 -19 -19
-61 13 -59 46 0 14 4 25 8 25 4 0 5 8 2 18 -4 13 -3 14 4 4 7 -11 10 -11 16 3
3 9 11 13 17 10 6 -5 4 -12 -8 -20z m318 2 c-10 -9 -11 -8 -5 6 3 10 9 15 12
12 3 -3 0 -11 -7 -18z m-488 -37 c-3 -12 -8 -19 -11 -16 -5 6 5 36 12 36 2 0
2 -9 -1 -20z m27 0 c0 -5 -5 -10 -11 -10 -5 0 -7 5 -4 10 3 6 8 10 11 10 2 0
4 -4 4 -10z m480 -1 c0 -3 -9 -9 -19 -12 -13 -3 -18 0 -15 7 5 13 34 18 34 5z
m-436 -17 c-6 -4 -13 -14 -16 -22 -3 -11 -6 -9 -10 6 -4 15 0 20 16 22 11 0
16 -2 10 -6z m469 -18 c-7 -19 -10 -18 -16 5 -3 13 -1 18 9 14 7 -2 10 -11 7
-19z m-193 -5 c0 -11 -4 -17 -10 -14 -5 3 -10 13 -10 21 0 8 5 14 10 14 6 0
10 -9 10 -21z m-357 -6 c-5 -12 -3 -14 7 -8 8 5 11 4 6 -3 -4 -6 -13 -9 -22
-5 -11 4 -12 9 -3 19 15 19 20 18 12 -3z m490 -8 c-3 -9 -8 -14 -10 -11 -3 3
-2 9 2 15 9 16 15 13 8 -4z m-462 -18 c-10 -9 -11 -8 -5 6 3 10 9 15 12 12 3
-3 0 -11 -7 -18z m509 8 c0 -2 -9 -9 -20 -15 -12 -6 -20 -7 -20 -1 0 5 8 12
18 14 9 3 18 5 20 6 1 0 2 -1 2 -4z m-585 -15 c-3 -5 0 -10 7 -11 10 0 10 -2
0 -6 -6 -2 -10 -9 -7 -14 4 -5 -1 -6 -10 -2 -13 5 -14 7 -3 14 7 5 9 9 5 9 -9
0 1 20 9 20 3 0 2 -4 -1 -10z m250 0 c3 -5 -1 -10 -9 -10 -9 0 -16 5 -16 10 0
6 4 10 9 10 6 0 13 -4 16 -10z m-172 -27 c-3 -7 -6 -13 -8 -13 -2 0 -5 6 -8
13 -3 8 1 14 8 14 7 0 11 -6 8 -14z m-32 -16 c-6 -8 -8 -17 -4 -20 3 -4 1 -7
-5 -7 -15 0 -15 13 0 28 16 16 23 15 9 -1z m539 3 c0 -4 -7 -7 -15 -6 -23 3
-26 12 -5 13 11 1 20 -2 20 -7z m60 -4 c-7 -7 -13 -7 -20 0 -6 6 -3 10 10 10
13 0 16 -4 10 -10z m-652 -31 c-3 -3 -9 2 -12 12 -6 14 -5 15 5 6 7 -7 10 -15
7 -18z m606 13 c-5 -8 -2 -9 9 -5 23 9 21 0 -2 -13 -16 -8 -19 -7 -16 8 5 23
4 22 11 22 3 0 2 -5 -2 -12z m-373 -15 c13 -16 12 -17 -3 -4 -10 7 -18 15 -18
17 0 8 8 3 21 -13z m447 3 c-10 -7 -15 -16 -11 -20 4 -4 -1 -4 -11 0 -14 5
-17 4 -12 -4 4 -7 5 -12 2 -12 -19 0 -12 22 11 34 35 19 44 20 21 2z m-723
-34 c-3 -3 -11 0 -18 7 -9 10 -8 11 6 5 10 -3 15 -9 12 -12z m10 -40 c-3 -3
-11 0 -18 7 -9 10 -8 11 6 5 10 -3 15 -9 12 -12z m79 10 c3 -5 -1 -9 -9 -9 -8
0 -12 4 -9 9 3 4 7 8 9 8 2 0 6 -4 9 -8z m-37 -17 c0 -8 -4 -12 -9 -9 -5 3 -6
10 -3 15 9 13 12 11 12 -6z m463 1 c0 -3 -4 -8 -10 -11 -5 -3 -10 -1 -10 4 0
6 5 11 10 11 6 0 10 -2 10 -4z m151 -13 c13 -16 12 -17 -3 -4 -17 13 -22 21
-14 21 2 0 10 -8 17 -17z m-183 -28 c-3 -3 -9 2 -12 12 -6 14 -5 15 5 6 7 -7
10 -15 7 -18z"/>
<path d="M1249 1303 c-13 -16 -12 -17 4 -4 9 7 17 15 17 17 0 8 -8 3 -21 -13z"/>
</g>
</svg>
